<svg width="1800" height="48" viewBox="0 0 1800 48" fill="none" xmlns="http://www.w3.org/2000/svg">
<g clip-path="url(#clip0_1_45)">
<rect width="1800" height="48" fill="url(#paint0_linear_1_45)"/>
<g opacity="0.4">
<rect width="143.492" height="290.605" rx="28" transform="matrix(0.866025 -0.5 2.20305e-08 1 787.393 -93.6247)" fill="url(#paint1_linear_1_45)"/>
<rect opacity="0.5" width="143.492" height="290.605" rx="28" transform="matrix(0.866025 -0.5 2.20305e-08 1 1672.5 -93.6247)" fill="url(#paint2_linear_1_45)"/>
<rect opacity="0.7" width="143.492" height="290.605" rx="28" transform="matrix(0.866025 -0.5 2.20305e-08 1 640.476 -259.817)" fill="url(#paint3_linear_1_45)"/>
<rect opacity="0.3" width="143.492" height="290.605" rx="28" transform="matrix(0.866025 -0.5 2.20305e-08 1 1525.59 -259.817)" fill="url(#paint4_linear_1_45)"/>
<rect width="143.492" height="290.605" rx="28" transform="matrix(0.866025 -0.5 2.20305e-08 1 640.476 63.7869)" fill="url(#paint5_linear_1_45)"/>
<rect width="143.492" height="290.605" rx="28" transform="matrix(0.866025 -0.5 2.20305e-08 1 1525.59 63.7869)" fill="url(#paint6_linear_1_45)"/>
<rect width="143.492" height="290.605" rx="28" transform="matrix(0.866025 -0.5 2.20305e-08 1 493.559 21.8103)" fill="url(#paint7_linear_1_45)"/>
<rect width="143.492" height="290.605" rx="28" transform="matrix(0.866025 -0.5 2.20305e-08 1 1378.67 21.8103)" fill="url(#paint8_linear_1_45)"/>
<rect width="143.492" height="290.605" rx="28" transform="matrix(0.866025 -0.5 2.20305e-08 1 345.834 -85.5523)" fill="url(#paint9_linear_1_45)"/>
<rect width="143.492" height="290.605" rx="28" transform="matrix(0.866025 -0.5 2.20305e-08 1 1230.94 -49.6672)" fill="url(#paint10_linear_1_45)"/>
<rect width="143.492" height="290.605" rx="28" transform="matrix(0.866025 -0.5 2.20305e-08 1 198.917 -92.8172)" fill="url(#paint11_linear_1_45)"/>
<rect width="143.492" height="290.605" rx="28" transform="matrix(0.866025 -0.5 2.20305e-08 1 1084.03 -118.18)" fill="url(#paint12_linear_1_45)"/>
<rect opacity="0.8" width="143.492" height="290.605" rx="28" transform="matrix(0.866025 -0.5 2.20305e-08 1 52 -175.057)" fill="url(#paint13_linear_1_45)"/>
<rect width="143.492" height="290.605" rx="28" transform="matrix(0.866025 -0.5 2.20305e-08 1 937.11 -29.2986)" fill="url(#paint14_linear_1_45)"/>
</g>
</g>
<defs>
<linearGradient id="paint0_linear_1_45" x1="-6.81029e-07" y1="23.9991" x2="1800" y2="23.9991" gradientUnits="userSpaceOnUse">
<stop stop-color="#0038C9"/>
<stop offset="1" stop-color="#53BAFF"/>
</linearGradient>
<linearGradient id="paint1_linear_1_45" x1="71.746" y1="0" x2="71.746" y2="290.605" gradientUnits="userSpaceOnUse">
<stop stop-color="#0037C5" stop-opacity="0.29"/>
<stop offset="1" stop-color="#0037C5"/>
</linearGradient>
<linearGradient id="paint2_linear_1_45" x1="71.746" y1="0" x2="71.746" y2="290.605" gradientUnits="userSpaceOnUse">
<stop stop-color="#0037C5" stop-opacity="0.29"/>
<stop offset="1" stop-color="#0037C5"/>
</linearGradient>
<linearGradient id="paint3_linear_1_45" x1="71.746" y1="0" x2="71.746" y2="290.605" gradientUnits="userSpaceOnUse">
<stop stop-color="#0037C5" stop-opacity="0.29"/>
<stop offset="1" stop-color="#0037C5"/>
</linearGradient>
<linearGradient id="paint4_linear_1_45" x1="71.746" y1="0" x2="71.746" y2="290.605" gradientUnits="userSpaceOnUse">
<stop stop-color="#0037C5" stop-opacity="0.29"/>
<stop offset="1" stop-color="#0037C5"/>
</linearGradient>
<linearGradient id="paint5_linear_1_45" x1="71.746" y1="0" x2="71.746" y2="290.605" gradientUnits="userSpaceOnUse">
<stop stop-color="#0037C5" stop-opacity="0.29"/>
<stop offset="1" stop-color="#0037C5"/>
</linearGradient>
<linearGradient id="paint6_linear_1_45" x1="71.746" y1="0" x2="71.746" y2="290.605" gradientUnits="userSpaceOnUse">
<stop stop-color="#0037C5" stop-opacity="0.29"/>
<stop offset="1" stop-color="#0037C5"/>
</linearGradient>
<linearGradient id="paint7_linear_1_45" x1="71.746" y1="0" x2="71.746" y2="290.605" gradientUnits="userSpaceOnUse">
<stop stop-color="#0037C5" stop-opacity="0.29"/>
<stop offset="1" stop-color="#0037C5"/>
</linearGradient>
<linearGradient id="paint8_linear_1_45" x1="71.746" y1="0" x2="71.746" y2="290.605" gradientUnits="userSpaceOnUse">
<stop stop-color="#0037C5" stop-opacity="0.29"/>
<stop offset="1" stop-color="#0037C5"/>
</linearGradient>
<linearGradient id="paint9_linear_1_45" x1="71.746" y1="0" x2="71.746" y2="290.605" gradientUnits="userSpaceOnUse">
<stop stop-color="#0037C5" stop-opacity="0.29"/>
<stop offset="1" stop-color="#0037C5"/>
</linearGradient>
<linearGradient id="paint10_linear_1_45" x1="71.746" y1="0" x2="71.746" y2="290.605" gradientUnits="userSpaceOnUse">
<stop stop-color="#0037C5" stop-opacity="0.29"/>
<stop offset="1" stop-color="#0037C5"/>
</linearGradient>
<linearGradient id="paint11_linear_1_45" x1="71.746" y1="0" x2="71.746" y2="290.605" gradientUnits="userSpaceOnUse">
<stop stop-color="#0037C5" stop-opacity="0.29"/>
<stop offset="1" stop-color="#002992"/>
</linearGradient>
<linearGradient id="paint12_linear_1_45" x1="71.746" y1="0" x2="71.746" y2="290.605" gradientUnits="userSpaceOnUse">
<stop stop-color="#0037C5" stop-opacity="0.29"/>
<stop offset="1" stop-color="#0037C5"/>
</linearGradient>
<linearGradient id="paint13_linear_1_45" x1="71.746" y1="0" x2="71.746" y2="290.605" gradientUnits="userSpaceOnUse">
<stop stop-color="#0037C5" stop-opacity="0.29"/>
<stop offset="1" stop-color="#002279"/>
</linearGradient>
<linearGradient id="paint14_linear_1_45" x1="71.746" y1="0" x2="71.746" y2="290.605" gradientUnits="userSpaceOnUse">
<stop stop-color="#0037C5" stop-opacity="0.29"/>
<stop offset="1" stop-color="#0037C5"/>
</linearGradient>
<clipPath id="clip0_1_45">
<rect width="1800" height="48" fill="white"/>
</clipPath>
</defs>
</svg>
